<svg width="124" height="239" viewBox="0 0 124 239" fill="none" xmlns="http://www.w3.org/2000/svg">
<path d="M119.5 66.0734H115.37C112.006 66.0734 108.826 59.9425 105.751 54.013C100.903 44.6677 94.8696 33.0367 82.3337 33.0367H82.0756V16.2603C82.0756 7.2944 74.7812 0 65.8153 0H57.5562C48.5903 0 41.2959 7.2944 41.2959 16.2603V33.0367H41.0378C28.5019 33.0367 22.4686 44.6677 17.621 54.013C14.5454 59.9425 11.3651 66.0734 8.00108 66.0734H3.87149C1.7334 66.0734 0 67.8068 0 69.9449C0 72.083 1.7334 73.8164 3.87149 73.8164H4.4615C6.05966 91.3506 13.5404 170.387 23.6171 228.983C24.6155 234.787 29.6401 239 35.5656 239H87.8059C93.7314 239 98.756 234.787 99.7539 228.983C109.831 170.387 117.311 91.3506 118.91 73.8164H119.5C121.638 73.8164 123.371 72.083 123.371 69.9449C123.371 67.8068 121.638 66.0734 119.5 66.0734ZM49.0389 16.2603C49.0389 11.5639 52.8598 7.74298 57.5562 7.74298H65.8153C70.5117 7.74298 74.3326 11.5639 74.3326 16.2603V16.5184H49.0389V16.2603ZM49.0389 24.2613H74.3326V33.0367H49.0389V24.2613ZM24.4941 57.5784C29.5963 47.7422 33.7697 40.7797 41.0378 40.7797H82.3337C89.6018 40.7797 93.7752 47.7422 98.8773 57.5784C100.401 60.515 101.944 63.4873 103.687 66.0734H19.6842C21.4274 63.4878 22.9708 60.5155 24.4941 57.5784ZM92.1229 227.671C91.7657 229.749 89.9502 231.257 87.8059 231.257H35.5656C33.4213 231.257 31.6058 229.749 31.2486 227.671C23.2279 181.03 16.8539 121.312 13.8088 90.3348H109.563C106.518 121.311 100.145 181.026 92.1229 227.671ZM110.313 82.5918H13.0583C12.7119 78.9619 12.4357 75.9901 12.237 73.8164H111.135C110.936 75.9901 110.66 78.9619 110.313 82.5918Z" fill="#FFF1C1"/>
<path d="M94.3106 115.092C94.4489 115.106 94.5862 115.113 94.7225 115.113C96.6778 115.113 98.3576 113.636 98.5677 111.649C98.8696 108.789 99.1582 106.029 99.4302 103.381C99.6491 101.254 98.1026 99.3528 95.9758 99.1339C93.847 98.9145 91.9469 100.462 91.728 102.588C91.456 105.229 91.169 107.983 90.8675 110.835C90.6425 112.961 92.1843 114.867 94.3106 115.092Z" fill="#FFF1C1"/>
<path d="M86.3849 181.153C86.5584 181.176 86.7308 181.187 86.9011 181.187C88.8121 181.187 90.4748 179.772 90.7339 177.827C92.7734 162.525 94.8047 145.823 96.7714 128.187C97.0083 126.061 95.4778 124.147 93.3531 123.91C91.2284 123.672 89.3128 125.203 89.0764 127.328C87.1154 144.91 85.0908 161.556 83.0591 176.804C82.7767 178.923 84.2654 180.87 86.3849 181.153Z" fill="#FFF1C1"/>
</svg>
