<?xml version="1.0" standalone="no"?>
<!DOCTYPE svg PUBLIC "-//W3C//DTD SVG 20010904//EN"
 "http://www.w3.org/TR/2001/REC-SVG-20010904/DTD/svg10.dtd">
<svg version="1.0" xmlns="http://www.w3.org/2000/svg"
 width="1316.000000pt" height="1314.000000pt" viewBox="0 0 1316.000000 1314.000000"
 preserveAspectRatio="xMidYMid meet">

<g transform="translate(0.000000,1314.000000) scale(0.100000,-0.100000)"
fill="#000000" stroke="none">
<path d="M6465 13106 c-678 -278 -1744 -999 -2316 -1566 -500 -496 -612 -842
-319 -989 30 -16 113 -45 184 -65 631 -181 1044 -518 1158 -944 25 -95 35
-298 19 -398 -68 -438 -395 -864 -826 -1074 -526 -257 -1040 -123 -1388 361
-123 172 -249 449 -328 724 -68 235 -142 315 -290 315 -165 0 -364 -112 -631
-354 -574 -520 -1410 -1734 -1707 -2478 -13 -32 -21 -63 -18 -70 3 -7 43 -28
90 -46 126 -49 418 -195 612 -307 1054 -605 1986 -1403 2154 -1845 39 -103 46
-158 27 -223 -33 -111 -104 -159 -343 -231 -650 -196 -1035 -515 -1149 -952
-22 -83 -26 -121 -27 -239 0 -253 68 -468 221 -700 297 -451 814 -723 1262
-665 508 65 874 475 1091 1218 37 128 67 189 115 238 49 48 96 67 169 67 343
-2 995 -643 1650 -1624 264 -395 559 -921 656 -1171 23 -61 39 -88 50 -88 23
0 185 68 332 140 448 217 1052 602 1527 974 391 305 742 650 897 881 152 227
176 410 67 519 -48 47 -102 72 -259 120 -83 25 -180 56 -215 70 -535 201 -866
512 -961 902 -26 104 -31 316 -10 424 82 431 410 842 834 1045 197 95 373 132
572 122 143 -8 244 -35 380 -102 344 -171 591 -525 761 -1087 25 -84 58 -175
72 -202 87 -161 259 -179 487 -51 234 131 588 476 933 908 382 481 804 1142
1023 1603 45 95 129 290 129 300 0 1 -15 7 -32 14 -435 170 -1067 541 -1635
961 -600 444 -1038 881 -1173 1170 -31 67 -60 167 -60 207 0 84 59 178 143
226 23 13 117 47 209 75 472 145 788 337 981 596 241 324 267 734 69 1130
-205 412 -612 732 -1029 811 -120 22 -359 15 -453 -14 -116 -35 -201 -74 -290
-133 -289 -189 -508 -534 -651 -1022 -23 -78 -52 -162 -64 -187 -48 -96 -143
-160 -235 -160 -343 0 -1006 654 -1668 1647 -277 414 -566 938 -667 1206 -11
30 -24 47 -34 47 -9 -1 -52 -16 -96 -34z"/>
</g>
</svg>
